<?xml version="1.0" encoding="utf-8"?>
<!-- Generator: Adobe Illustrator 23.0.4, SVG Export Plug-In . SVG Version: 6.00 Build 0)  -->
<svg version="1.1" id="Layer_1" xmlns="http://www.w3.org/2000/svg" xmlns:xlink="http://www.w3.org/1999/xlink" x="0px" y="0px"
	 viewBox="0 0 720 504" style="enable-background:new 0 0 720 504;" xml:space="preserve">
<style type="text/css">
	.st0{fill:none;}
	.st1{fill:#FFFFFF;}
	.st2{font-family:'TheBoldFont';}
	.st3{font-size:124px;}
	.st4{letter-spacing:19;}
	.st5{stroke:#FFFFFF;stroke-width:5;stroke-linecap:round;stroke-miterlimit:10;}
	.st6{fill:#FFFFFF;stroke:#FFFFFF;stroke-width:5;stroke-linecap:round;stroke-miterlimit:10;}
	.st7{fill:#C1272D;}
</style>
<rect x="127.3" y="214.2" class="st0" width="440.7" height="230"/>
<text transform="matrix(1 0 0 1 127.7776 305.7287)" class="st1 st2 st3 st4">BOING</text>
<line class="st5" x1="402.1" y1="204.4" x2="406.6" y2="196.4"/>
<line class="st6" x1="412.3" y1="187.8" x2="418" y2="180.6"/>
<line class="st5" x1="425.8" y1="173" x2="433.3" y2="167.6"/>
<line class="st5" x1="445.6" y1="164.8" x2="454.8" y2="164.6"/>
<line class="st5" x1="465.2" y1="167.3" x2="473" y2="172.2"/>
<line class="st5" x1="483.2" y1="180.8" x2="489.2" y2="187.8"/>
<line class="st5" x1="494.1" y1="195.9" x2="499.3" y2="203.5"/>
<line class="st5" x1="503.9" y1="215.4" x2="508.4" y2="207.3"/>
<line class="st5" x1="513.9" y1="198.6" x2="520.1" y2="191.8"/>
<line class="st5" x1="528.7" y1="185.6" x2="537.1" y2="181.9"/>
<line class="st5" x1="546.7" y1="181.9" x2="555.2" y2="185.5"/>
<line class="st5" x1="562.2" y1="192.4" x2="568" y2="199.5"/>
<circle class="st7" cx="615.9" cy="278.6" r="27.8"/>
<line class="st5" x1="573.9" y1="207.6" x2="578.8" y2="215.4"/>
<circle class="st7" cx="343.4" cy="185.6" r="16"/>
<line class="st5" x1="583.8" y1="224.9" x2="588.1" y2="233.1"/>
</svg>
